<svg width="64" height="64" viewBox="0 0 64 64" fill="none" xmlns="http://www.w3.org/2000/svg">
<path d="M31.9999 0.333328C27.8414 0.333328 23.7236 1.15241 19.8816 2.74381C16.0396 4.33521 12.5487 6.66776 9.6082 9.60828C3.66955 15.5469 0.333252 23.6015 0.333252 32C0.333252 40.3985 3.66955 48.4531 9.6082 54.3917C12.5487 57.3322 16.0396 59.6648 19.8816 61.2562C23.7236 62.8476 27.8414 63.6667 31.9999 63.6667C40.3984 63.6667 48.453 60.3304 54.3916 54.3917C60.3303 48.4531 63.6666 40.3985 63.6666 32C63.6666 27.8415 62.8475 23.7237 61.2561 19.8817C59.6647 16.0397 57.3322 12.5488 54.3916 9.60828C51.4511 6.66776 47.9602 4.33521 44.1182 2.74381C40.2762 1.15241 36.1584 0.333328 31.9999 0.333328ZM31.9999 20.5683C37.1094 23.8879 43.0701 25.6585 49.1632 25.6667C51.6332 25.6667 54.0082 25.3817 56.2882 24.8433C56.9532 27.0917 57.3332 29.4983 57.3332 32C57.3332 45.965 45.9649 57.3333 31.9999 57.3333C22.4999 57.3333 14.2349 52.0767 9.83325 44.3183L15.3749 38.3333V35.1667C15.3749 34.1168 15.792 33.11 16.5343 32.3677C17.2766 31.6254 18.2834 31.2083 19.3333 31.2083C20.3831 31.2083 21.3899 31.6254 22.1322 32.3677C22.8745 33.11 23.2916 34.1168 23.2916 35.1667V38.3333H31.9999M44.6666 31.2083C43.6168 31.2083 42.61 31.6254 41.8676 32.3677C41.1253 33.11 40.7082 34.1168 40.7082 35.1667C40.7082 36.2165 41.1253 37.2233 41.8676 37.9656C42.61 38.708 43.6168 39.125 44.6666 39.125C45.7164 39.125 46.7232 38.708 47.4656 37.9656C48.2079 37.2233 48.6249 36.2165 48.6249 35.1667C48.6249 34.1168 48.2079 33.11 47.4656 32.3677C46.7232 31.6254 45.7164 31.2083 44.6666 31.2083Z" fill="white"/>
</svg>
